<svg width="48" height="48" viewBox="0 0 48 48" fill="none" xmlns="http://www.w3.org/2000/svg">
<path fill-rule="evenodd" clip-rule="evenodd" d="M40.3813 19.7545L26.2461 5.61931C25.4627 4.8359 24.1947 4.83532 23.413 5.61705L3.61646 25.4136C2.82981 26.2002 2.83574 27.4638 3.61872 28.2467L17.7539 42.3819C18.5373 43.1653 19.8053 43.1659 20.587 42.3841L40.3835 22.5876C41.1702 21.801 41.1643 20.5374 40.3813 19.7545ZM19.1719 38.1431L7.85786 26.829L24.8284 9.85846L36.147 21.177L19.1719 38.1431ZM16.6339 21.9983H30.5786C31.6853 21.9983 31.9358 22.6302 31.1502 23.4098L19.8741 34.5993C19.4809 34.9895 18.8463 34.989 18.456 34.5987L11.4112 27.5539C11.0258 27.1686 11.0249 26.5316 11.42 26.1422L14.9091 22.7034C15.3017 22.3164 16.0764 21.9983 16.6339 21.9983ZM37 33.99C37 36.1991 38.7909 37.99 41 37.99C43.2091 37.99 45 36.1991 45 33.99C45 31.7809 41.9479 26.415 41.9479 26.415C41.4244 25.4439 40.5719 25.4376 40.0521 26.415C40.0521 26.415 37 31.7809 37 33.99Z" fill="#3CB156"/>
</svg>
