<svg width="50" height="50" viewBox="0 0 50 50" fill="none" xmlns="http://www.w3.org/2000/svg">
<path fill-rule="evenodd" clip-rule="evenodd" d="M24.1069 2.8418C29.38 2.8418 33.6595 7.1219 33.6595 12.39L35.566 12.3945C37.6785 12.3945 39.4979 14.1035 39.6292 16.2042L41.0635 39.1534C41.195 41.2574 39.5963 42.9631 37.49 42.9631H10.7238C8.61862 42.9631 7.01888 41.2541 7.15018 39.1534L8.58449 16.2042C8.716 14.1002 10.5316 12.3945 12.6477 12.3945H14.5542C14.5542 7.11904 18.8373 2.8418 24.1069 2.8418ZM29.842 12.3936C29.842 9.23123 27.2731 6.66199 24.1104 6.66199C20.95 6.66199 18.3788 9.22965 18.3788 12.3891L29.842 12.3936ZM14.5549 16.2146H12.6484C12.5501 16.2146 12.4044 16.3513 12.3988 16.4416L10.9943 39.141L37.2348 39.1361L35.8164 16.4416C35.8109 16.3547 35.6616 16.2146 35.5667 16.2146H33.6603V20.0357C33.6603 21.0908 32.8049 21.9462 31.7497 21.9462C30.6946 21.9462 29.8392 21.0908 29.8392 20.0357V16.2146H18.376V20.0357C18.376 21.0908 17.5206 21.9462 16.4654 21.9462C15.4103 21.9462 14.5549 21.0908 14.5549 20.0357V16.2146ZM14.5542 33.4108C14.5542 32.3556 15.4122 31.5002 16.4559 31.5002H31.7578C32.8081 31.5002 33.6596 32.3483 33.6596 33.4108C33.6596 34.4659 32.8015 35.3213 31.7578 35.3213H16.4559C15.4056 35.3213 14.5542 34.4733 14.5542 33.4108Z" fill="#CBF1D4"/>
</svg>
