<svg width="48" height="48" viewBox="0 0 48 48" fill="none" xmlns="http://www.w3.org/2000/svg">
<path fill-rule="evenodd" clip-rule="evenodd" d="M17.1081 32H30.8919L28 24.7703L28.0396 20H20.034L20 24.7703L17.1081 32ZM15.5081 36L13.9081 40L34.1039 40.03L32.4919 36H15.5081ZM32 20V24L38.514 40.285C39.3347 42.3368 38.211 44 35.9957 44H12.0043C9.79277 44 8.66832 42.3292 9.48599 40.285L16 24V20H14.9912C13.8915 20 13 19.1123 13 18C13 16.8954 13.8897 16 14.9912 16H33.0088C34.1085 16 35 16.8877 35 18C35 19.1046 34.1103 20 33.0088 20H32ZM28 8C26.8954 8 26 7.10457 26 6C26 4.89543 26.8954 4 28 4C29.1046 4 30 4.89543 30 6C30 7.10457 29.1046 8 28 8ZM21 14C19.3431 14 18 12.6569 18 11C18 9.34315 19.3431 8 21 8C22.6569 8 24 9.34315 24 11C24 12.6569 22.6569 14 21 14Z" fill="#51B966"/>
</svg>
