<svg width="48" height="48" viewBox="0 0 48 48" fill="none" xmlns="http://www.w3.org/2000/svg">
<path fill-rule="evenodd" clip-rule="evenodd" d="M40.3813 19.754L26.2461 5.61883C25.4627 4.83541 24.1947 4.83483 23.413 5.61656L3.61644 25.4131C2.8298 26.1997 2.83573 27.4633 3.61871 28.2462L17.7538 42.3814C18.5373 43.1648 19.8053 43.1654 20.587 42.3836L40.3835 22.5871C41.1702 21.8005 41.1642 20.5369 40.3813 19.754ZM19.1719 38.1426L7.85785 26.8285L24.8284 9.85797L36.147 21.1765L19.1719 38.1426ZM16.6339 21.9978H30.5786C31.6853 21.9978 31.9358 22.6297 31.1502 23.4093L19.8741 34.5988C19.4808 34.989 18.8462 34.9885 18.456 34.5983L11.4112 27.5534C11.0258 27.1681 11.0249 26.5311 11.42 26.1417L14.9091 22.7029C15.3017 22.3159 16.0764 21.9978 16.6339 21.9978ZM37 33.9895C37 36.1986 38.7908 37.9895 41 37.9895C43.2091 37.9895 45 36.1986 45 33.9895C45 31.7804 41.9479 26.4145 41.9479 26.4145C41.4244 25.4434 40.5719 25.4371 40.052 26.4145C40.052 26.4145 37 31.7804 37 33.9895Z" fill="#3CB156"/>
</svg>
