<svg width="48" height="48" viewBox="0 0 48 48" fill="none" xmlns="http://www.w3.org/2000/svg">
<path fill-rule="evenodd" clip-rule="evenodd" d="M23.2209 2.00188C18.8065 1.93724 15.456 3.54311 13.2212 5.79893C12.2058 6.82393 11.4481 8.18647 11.4152 9.72981C11.3681 11.933 12.8252 13.8378 15.7523 15.2478C16.9147 15.8078 17.9993 16.393 18.9896 16.9894C19.5 17.2969 22.5 19.4136 22.5 19.4136C22.5 19.4136 23.6087 20.0085 24.792 22.0639C25.1751 22.7294 25.3471 23.3515 25.2779 23.9046C24.9885 26.2172 23.048 27.3748 21.0485 26.7013C20.3271 26.4584 19.8368 25.9772 19.5 25.2717C19.3108 24.8753 19.1843 24.4335 19.1136 23.9888C19.0719 23.7258 19.0531 23.3164 19.0531 23.3164C18.9793 22.439 18.6392 21.7004 17.5935 21.5066C16.5852 21.3197 16.0158 21.8492 15.6192 22.6068L13.2212 25.8924L9.82497 27.5229C8.351 27.9289 7.71006 29.6035 8.60205 30.9025C8.60205 30.9025 9.2373 31.9405 10.0591 32.6357C11.6235 33.9593 13.73 34.6353 16.3513 34.3704C16.6531 34.5678 17.0038 34.8287 17.9316 35.1619C18.8238 35.4822 20.4635 36 23.3109 36C26.1583 36 30.1135 35.0553 33.4279 32.5464C37.5811 29.4025 40 24.5591 40 18.2508C40 8.96448 31.6525 1.93027 23.2209 2.00188ZM28.1266 24.2901C28.6799 19.9913 23.8482 15.7726 16.5256 12.3434C14.5899 11.437 13.9305 10.599 13.9473 9.83314C13.9594 9.28515 14.8341 8.13759 14.8341 8.13759C22.5578 3.68031 38.9742 14.9665 35.383 24.8967C34.456 26.9291 33.0669 28.5954 31.2907 29.9025C28.5353 31.9302 25.5285 32.7095 23.0046 32.7095C20.4807 32.7095 19.5554 32.4611 18.5465 32.0897C17.5545 31.7245 16.9267 31.1447 16.5256 30.9563C16.1244 30.7679 13.9473 31.8286 11.484 30.1806C11.9305 30.0993 13.4604 29.461 13.9473 29.0895C14.4343 28.718 15.994 27.5962 16.2607 27.1008C16.7495 28.1112 17.8935 29.1963 19.5288 29.7318C23.4818 31.026 27.5643 28.6586 28.1266 24.2901Z" fill="#3CB156"/>
<path fill-rule="evenodd" clip-rule="evenodd" d="M6.60068 43.4097C5.4563 42.2578 5.02508 42.0001 4 42.0001C2.89543 42.0001 2 41.1046 2 40.0001C2 38.8955 2.89543 38.0001 4 38.0001C6.35375 38.0001 7.6117 38.7519 9.45732 40.6096C10.5889 41.7485 11.0082 42.0001 12 42.0001C13.001 42.0001 13.4274 41.7442 14.5858 40.5858C16.4274 38.7442 17.6677 38.0001 20 38.0001C22.3201 38.0001 23.5642 38.7447 25.3675 40.562L25.3966 40.5913C26.5345 41.7379 26.9697 41.9977 28.0046 42.0001C29.0303 42.0024 29.4515 41.7496 30.5978 40.5839C32.4093 38.742 33.6578 37.9915 36.0073 38.0001C38.3481 38.0086 39.599 38.7575 41.4403 40.6056C42.5779 41.7475 43.0001 42.0001 44 42.0001C45.1046 42.0001 46 42.8955 46 44.0001C46 45.1046 45.1046 46.0001 44 46.0001C41.671 46.0001 40.4267 45.2557 38.5895 43.4116C37.4444 42.2623 37.0126 42.0038 35.9927 42C34.9878 41.9964 34.5749 42.2445 33.4362 43.4024C31.6186 45.2506 30.3613 46.0055 27.9954 46.0001C25.6387 45.9946 24.375 45.2405 22.5574 43.4088L22.5283 43.3795C21.4074 42.25 20.9899 42.0001 20 42.0001C18.999 42.0001 18.5726 42.2559 17.4142 43.4143C15.5726 45.2559 14.3323 46.0001 12 46.0001C9.67621 46.0001 8.43404 45.255 6.60068 43.4097Z" fill="#3CB156"/>
</svg>
