<svg width="37" height="49" viewBox="0 0 37 49" fill="none" xmlns="http://www.w3.org/2000/svg">
<path d="M18.5 0C8.29902 0 0 8.43661 0 18.8063C0 22.9491 1.29967 26.8783 3.7583 30.1693C5.96618 33.1248 9.03487 35.3808 12.4668 36.5878L16.9241 47.9154C17.182 48.5705 17.806 49 18.5 49C19.194 49 19.818 48.5705 20.0759 47.9154L24.5332 36.5878C27.9651 35.3808 31.0338 33.1248 33.2417 30.1693C35.7003 26.8783 37 22.9491 37 18.8063C37 8.43661 28.701 0 18.5 0ZM18.5 11.9913C22.1966 11.9913 25.2041 15.0485 25.2041 18.8065C25.2041 22.5643 22.1968 25.6218 18.5 25.6218C14.8034 25.6218 11.7959 22.5645 11.7959 18.8065C11.7959 15.0485 14.8034 11.9913 18.5 11.9913Z" fill="#3CB156"/>
</svg>
