<svg width="48" height="48" viewBox="0 0 48 48" fill="none" xmlns="http://www.w3.org/2000/svg">
<path fill-rule="evenodd" clip-rule="evenodd" d="M32.6001 10.7002C32.6001 10.5002 32.4001 10.4002 32.3001 10.4002H14.5001C14.3001 10.4002 14.2001 10.6002 14.2001 10.7002L13.2001 41.4002C13.2001 41.5002 13.3001 41.6002 13.3001 41.6002C13.4001 41.7002 13.4001 41.7002 13.5001 41.7002H33.1001C33.2001 41.7002 33.3001 41.6002 33.3001 41.6002C33.3619 41.6002 33.3855 41.562 33.4181 41.5092C33.4383 41.4766 33.4619 41.4384 33.5001 41.4002L32.6001 10.7002ZM19.3001 5.8002V9.0002H27.6001V5.8002C27.6001 5.6002 27.4001 5.5002 27.3001 5.5002H19.6001C19.4001 5.5002 19.3001 5.7002 19.3001 5.8002ZM26.8001 8.2002V6.3002H20.1001V8.2002H26.8001ZM20.1001 5.80023C20.1001 5.80022 20.1001 5.80024 20.1001 5.80023V5.80023ZM12.3001 42.7002C12.0001 42.3002 11.8001 41.9002 11.8001 41.4002L12.7001 10.7002C12.7001 9.8002 13.5001 9.0002 14.5001 9.0002H17.8001V5.8002C17.8001 4.8002 18.6001 4.0002 19.5001 4.0002H27.2001C28.1001 4.0002 28.9001 4.8002 28.9001 5.8002V8.9002H32.2001C33.2001 8.9002 34.0001 9.6002 34.0001 10.6002L34.9001 41.4002C34.9001 41.9002 34.7001 42.4002 34.4001 42.7002C34.1001 43.0002 33.7001 43.2002 33.2001 43.2002H13.5001C13.1001 43.2002 12.6001 43.0002 12.3001 42.7002ZM34.8001 10.5875L35.7001 41.3885V41.4002C35.7001 42.0865 35.4331 42.7985 34.9658 43.2659C34.5322 43.6994 33.9345 44.0002 33.2001 44.0002H13.5001C12.8903 44.0002 12.1861 43.7176 11.7344 43.2659L11.6942 43.2257L11.6601 43.1802C11.3075 42.71 11.0001 42.1427 11.0001 41.4002V41.3885L11.9001 10.6873C11.9076 9.322 13.0926 8.2002 14.5001 8.2002H17.0001V5.8002C17.0001 4.38823 18.129 3.2002 19.5001 3.2002H27.2001C28.5712 3.2002 29.7001 4.38823 29.7001 5.8002V8.1002H32.2001C33.5765 8.1002 34.7932 9.09366 34.8001 10.5875ZM32.6851 40.9002H14.0168L14.9842 11.2002H31.8144L32.6851 40.9002ZM13.3929 41.5074C13.428 41.4723 13.4605 41.4398 13.4906 41.4097L13.3929 41.5074Z" fill="#51B966"/>
<path d="M34.0001 10.6002C34.0001 9.6002 33.2001 8.9002 32.2001 8.9002H28.9001V5.8002C28.9001 4.8002 28.1001 4.0002 27.2001 4.0002H19.5001C18.6001 4.0002 17.8001 4.8002 17.8001 5.8002V9.0002H14.5001C13.5001 9.0002 12.7001 9.8002 12.7001 10.7002L11.8001 41.4002C11.8001 41.9002 12.0001 42.3002 12.3001 42.7002C12.6001 43.0002 13.1001 43.2002 13.5001 43.2002H33.2001C33.7001 43.2002 34.1001 43.0002 34.4001 42.7002C34.7001 42.4002 34.9001 41.9002 34.9001 41.4002L34.0001 10.6002ZM19.3001 5.8002C19.3001 5.7002 19.4001 5.5002 19.6001 5.5002H27.3001C27.4001 5.5002 27.6001 5.6002 27.6001 5.8002V9.0002H19.3001C19.3001 8.9002 19.3001 5.8002 19.3001 5.8002ZM33.3001 41.6002C33.3001 41.6002 33.2001 41.7002 33.1001 41.7002H13.5001C13.4001 41.7002 13.4001 41.7002 13.3001 41.6002C13.3001 41.6002 13.2001 41.5002 13.2001 41.4002L14.2001 10.7002C14.2001 10.6002 14.3001 10.4002 14.5001 10.4002H32.3001C32.4001 10.4002 32.6001 10.5002 32.6001 10.7002L33.5001 41.4002C33.4001 41.5002 33.4001 41.6002 33.3001 41.6002Z" fill="#51B966"/>
<path fill-rule="evenodd" clip-rule="evenodd" d="M18.8817 16H28.033C28.7172 16 29.3159 16.6111 29.4014 17.3095L30.0001 36.6905C30.0001 37.0397 29.9146 37.3889 29.658 37.6508C29.4014 37.8254 29.0593 38 28.7172 38H18.283C17.9409 38 17.5988 37.9127 17.3422 37.6508C17.0856 37.3889 17.0001 37.0397 17.0001 36.6905L17.5988 17.3095C17.5988 16.6111 18.1975 16 18.8817 16ZM25.9389 23.264C25.8572 23.088 25.694 23 25.5307 23H23.1634C22.9185 23 22.5919 23.176 22.5103 23.44L20.0613 28.984C19.9797 29.16 19.9797 29.336 20.0613 29.512C20.0613 29.688 20.2246 29.776 20.4695 29.776H22.2654L20.9593 33.384C20.9593 33.4087 20.9528 33.4404 20.9454 33.477C20.9263 33.5708 20.9006 33.6974 20.9593 33.824C21.0409 33.912 21.1225 34 21.2042 34C21.3674 34 21.5307 33.824 21.5307 33.824L25.7756 28.016C25.9051 27.8067 25.8806 27.6527 25.8648 27.554C25.8607 27.5282 25.8572 27.5062 25.8572 27.488C25.8572 27.4 25.694 27.224 25.4491 27.224H24.143L25.9389 23.88C26.0205 23.616 26.0205 23.352 25.9389 23.264Z" fill="#51B966"/>
</svg>
