<svg width="22" height="20" viewBox="0 0 22 20" fill="none" xmlns="http://www.w3.org/2000/svg">
<path d="M16.2183 19.6185C17.488 20.2609 18.7132 19.4054 18.4706 18.0438L17.5606 12.9378C17.5694 12.9874 21.4021 9.36106 21.4021 9.36106C22.4293 8.39749 21.9624 7.01172 20.5418 6.81307L15.2146 6.06811C15.2664 6.07535 12.867 1.44685 12.867 1.44685C12.2322 0.208942 10.7184 0.208002 10.0831 1.44685L7.70072 6.09244C7.72388 6.04727 2.40831 6.81307 2.40831 6.81307C0.988777 7.01157 0.520076 8.39676 1.54804 9.36106L5.40284 12.9772C5.36536 12.942 4.47955 18.0438 4.47955 18.0438C4.23707 19.4044 5.46114 20.2614 6.73177 19.6185L11.4966 17.2078C11.4502 17.2313 16.2183 19.6185 16.2183 19.6185Z" fill="white"/>
</svg>
