<svg width="32" height="32" viewBox="0 0 32 32" fill="none" xmlns="http://www.w3.org/2000/svg">
<path fill-rule="evenodd" clip-rule="evenodd" d="M16 0C7.2 0 0 7.2 0 16C0 24.8 7.2 32 16 32C24.8 32 32 24.8 32 16C32 7.2 24.8 0 16 0ZM16 2.66667C23.3333 2.66667 29.3333 8.66667 29.3333 16C29.3333 23.3333 23.3333 29.3333 16 29.3333C8.66667 29.3333 2.66667 23.3333 2.66667 16C2.66667 8.66667 8.66667 2.66667 16 2.66667ZM19.6 22.5333C19.8667 22.6667 20.1333 22.6667 20.4 22.6667C20.6667 22.5333 20.8 22.4 20.9333 22.1333C21.4667 19.4667 22.9333 12.5333 23.4667 10C23.4667 9.86667 23.4667 9.6 23.3333 9.46667C23.0667 9.33333 22.8 9.33333 22.6667 9.33333C19.8667 10.4 11.2 13.6 7.73333 14.9333C7.46667 15.0667 7.33333 15.2 7.33333 15.4667C7.33333 15.7333 7.46667 15.8667 7.73333 16C9.33333 16.5333 11.3333 17.0667 11.3333 17.0667C11.3333 17.0667 12.2667 20 12.8 21.4667C12.8 21.6 13.0667 21.8667 13.2 21.8667C13.3333 21.8667 13.6 21.8667 13.7333 21.7333C14.5333 20.9333 15.7333 19.7333 15.7333 19.7333C15.7333 19.7333 18.2667 21.6 19.6 22.5333ZM12.2667 16.8L13.3333 20.5333L13.6 18.1333C13.6 18.1333 17.8667 14.2667 20.4 12C20.5333 12 20.5333 11.8667 20.4 11.7333C20.4 11.6 20.2667 11.6 20.1333 11.7333C17.3333 13.4667 12.2667 16.8 12.2667 16.8Z" fill="#28A4D7"/>
</svg>
