<svg width="30" height="32" viewBox="0 0 30 32" fill="none" xmlns="http://www.w3.org/2000/svg">
<g clip-path="url(#clip0)">
<path d="M27.1679 17.9405C26.3801 24.4461 21.7344 24.8522 20.8735 25.1364C20.508 25.2583 17.1212 26.1192 12.8572 25.8349L8.2359 30.9517L8.22777 25.0552L8.19529 25.0471C1.99021 23.2847 2.20138 16.6654 2.26635 13.1973C2.33945 9.72933 2.97295 6.87857 4.86534 4.96994C8.26026 1.81867 15.2694 2.28974 15.2694 2.28974C21.1821 2.3141 24.0166 4.14151 24.6745 4.75065C26.8674 6.65928 27.9801 11.2319 27.1679 17.9405ZM26.2988 3.11816C25.5191 2.3872 22.3841 0.056233 15.3912 0.0237456C15.3912 0.0237456 7.14757 -0.48793 3.12727 3.28872C0.885641 5.57908 0.0978238 8.93339 0.0166055 13.0836C-0.0646127 17.242 -0.170197 25.0309 7.16381 27.1425H7.17194V30.3669C7.17194 30.3669 7.12321 31.6745 7.96788 31.9344C8.9831 32.2593 9.576 31.2684 10.5506 30.1963C11.0867 29.6116 11.8176 28.7506 12.3699 28.0928C17.3892 28.5232 21.2471 27.5324 21.6775 27.3943C22.6927 27.0532 28.4186 26.306 29.3526 18.5171C30.3029 10.4847 28.8735 5.40852 26.2988 3.11816Z" fill="#834995"/>
<path d="M21.8229 18.9076C21.8229 18.9076 20.8808 18.1035 20.426 17.7624C19.9955 17.4375 19.3052 16.999 18.9234 16.7797C18.2331 16.3898 17.5265 16.6335 17.2341 17.0233L16.625 17.803C16.3163 18.201 15.8371 18.1279 15.7153 18.1035C14.8219 17.8761 13.8717 17.3238 12.897 16.3817C11.9143 15.4314 11.3133 14.4406 11.1021 13.4091L11.0859 13.3441C11.029 12.9218 11.1021 12.7269 11.2727 12.4345L11.3052 12.4101C11.7113 12.0284 12.4747 11.5654 12.5722 11.1269C12.8727 10.3634 11.5732 8.76341 11.3945 8.48727C11.3945 8.48727 10.4524 7.24462 10.1194 7.00097C9.76202 6.70046 9.20161 6.5299 8.63308 6.87914L8.6006 6.90351C6.98435 7.97559 6.39958 8.60909 6.56202 9.54311L6.64324 9.92483C7.46354 12.5157 9.05542 15.2771 11.4189 17.738C13.758 20.1665 16.292 21.6203 18.7854 22.6274C19.4351 22.8467 20.1092 22.6599 20.7996 22.067L20.8077 22.0589C21.3356 21.5634 21.758 21.0355 22.0666 20.467V20.4589C22.3752 19.8578 22.2696 19.2974 21.8229 18.9076Z" fill="#834995"/>
<path d="M17.9403 13.2379C17.8428 13.2379 17.7616 13.1567 17.7535 13.0593C17.721 12.3851 17.5423 11.8735 17.2174 11.5324C16.8926 11.1912 16.4134 11.0044 15.7799 10.9638C15.6743 10.9557 15.6012 10.8664 15.6012 10.7608C15.6093 10.6552 15.6905 10.574 15.7961 10.5821C16.5271 10.6227 17.0875 10.8501 17.4773 11.2643C17.8672 11.6785 18.0865 12.2714 18.119 13.043C18.1271 13.1486 18.0459 13.2379 17.9403 13.2461" fill="#834995"/>
<path d="M19.7845 13.8714C19.6789 13.8714 19.5977 13.7821 19.5977 13.6765C19.6302 12.3851 19.2485 11.2968 18.4769 10.4359C18.0952 10.0054 17.6241 9.66431 17.0881 9.42877C16.552 9.18512 15.9185 9.03893 15.2282 8.9902C15.1226 8.98207 15.0495 8.89273 15.0576 8.78715C15.0657 8.68157 15.1551 8.60035 15.2607 8.60847C16.747 8.72218 17.9246 9.25009 18.7612 10.1841C19.5977 11.1181 20.0119 12.3039 19.9794 13.6927C19.9713 13.7821 19.8901 13.8714 19.7845 13.8714Z" fill="#834995"/>
<path d="M21.6763 14.6264C21.5707 14.6264 21.4895 14.5452 21.4895 14.4396C21.4813 13.3026 21.3108 12.2711 20.9778 11.3777C20.6448 10.4924 20.1494 9.71273 19.4996 9.05486C18.8499 8.40511 18.1026 7.90968 17.2986 7.57669C16.4864 7.24369 15.5849 7.07313 14.6103 7.07313C14.5047 7.07313 14.4235 6.98379 14.4235 6.87821C14.4235 6.77262 14.5047 6.69141 14.6103 6.69141C16.657 6.70765 18.3869 7.40613 19.7595 8.77872C20.4499 9.46907 20.9778 10.2975 21.327 11.2396C21.6763 12.1736 21.8549 13.2538 21.8631 14.4396C21.8631 14.5371 21.7818 14.6264 21.6763 14.6264Z" fill="#834995"/>
</g>
<defs>
<clipPath id="clip0">
<rect width="29.6447" height="32" fill="white"/>
</clipPath>
</defs>
</svg>
