<svg width="48" height="48" viewBox="0 0 48 48" fill="none" xmlns="http://www.w3.org/2000/svg">
<path fill-rule="evenodd" clip-rule="evenodd" d="M12.9688 4.57559C13.7722 2.39274 16.2145 1.48819 18.2535 2.60437L24.7365 6.00009H40.0008C42.2095 6.00009 44 7.79661 44 9.99592V38.0033C44 40.2106 42.2036 42.0001 40 42.0001H8.00003C5.79087 42.0001 4 40.206 4 38.0033V12.0001C4 8.68715 6.6799 6.00009 9.99018 6.00009H12.4446L12.9688 4.57559ZM31.9908 24.0001C29.7866 24.0001 28 25.7891 28 28.0001C28 30.2051 29.7916 32.0001 31.9908 32.0001H39.9991L39.9995 24.0001H31.9908ZM16.6421 6.27475L13.7546 14.0001H31.3854L16.6421 6.27475ZM8 38.0033L40 38.0001L39.9992 36.0001H31.9908C27.5776 36.0001 24 32.4094 24 28.0001C24 23.5818 27.5756 20.0001 31.9908 20.0001H39.9998L40 18.0001H9.99018C9.29251 18.0001 8.62269 17.8804 8 17.6605V38.0033ZM40 9.99592L32.3699 9.99838L40.0005 13.9952L40 9.99592ZM9.99018 10.0001C8.89143 10.0001 8 10.8939 8 12.0001C8 12.9406 8.64997 13.7313 9.52101 13.9439L10.9725 10.0001H9.99018ZM32 30.0001C30.8954 30.0001 30 29.1047 30 28.0001C30 26.8955 30.8954 26.0001 32 26.0001C33.1046 26.0001 34 26.8955 34 28.0001C34 29.1047 33.1046 30.0001 32 30.0001Z" fill="#51B966"/>
</svg>
