<svg width="32" height="32" viewBox="0 0 32 32" fill="none" xmlns="http://www.w3.org/2000/svg">
<g clip-path="url(#clip0)">
<path fill-rule="evenodd" clip-rule="evenodd" d="M27.3389 4.64762C24.331 1.65333 20.3282 0 16.0651 0C7.28629 0 0.137766 7.11619 0.130112 15.8552C0.130112 18.6514 0.864865 21.379 2.25783 23.779L0 32L8.44965 29.7981C10.7764 31.0629 13.3939 31.7257 16.0651 31.7257H16.0727C24.8515 31.7257 32 24.6095 32.0077 15.8705C32 11.6343 30.3468 7.64952 27.3389 4.64762ZM16.0651 29.0438C13.6848 29.0438 11.3504 28.4038 9.32217 27.2076L8.83999 26.9257L3.82684 28.2362L5.16623 23.3752L4.85243 22.88C3.52834 20.7848 2.8242 18.3543 2.8242 15.8629C2.8242 8.59429 8.77111 2.68191 16.0727 2.68191C19.6087 2.68191 22.9381 4.05333 25.4331 6.54476C27.9359 9.03619 29.3136 12.3429 29.3136 15.8705C29.3059 23.1314 23.3667 29.0438 16.0651 29.0438ZM23.336 19.1771C22.9381 18.979 20.9787 18.019 20.619 17.8895C20.2516 17.76 19.9914 17.6914 19.7235 18.0876C19.4556 18.4838 18.6979 19.3752 18.4607 19.6419C18.231 19.9086 17.9938 19.939 17.5958 19.741C17.1978 19.5429 15.912 19.1238 14.3966 17.7752C13.2102 16.7238 12.4143 15.4286 12.1846 15.0324C11.955 14.6362 12.1617 14.4229 12.3607 14.2248C12.5367 14.0495 12.7587 13.76 12.9577 13.5314C13.1567 13.3029 13.2255 13.1352 13.3557 12.8686C13.4858 12.6019 13.4245 12.3733 13.325 12.1752C13.2255 11.9771 12.4296 10.0267 12.1005 9.23429C11.779 8.46476 11.4499 8.56381 11.205 8.55619C10.9754 8.54095 10.7075 8.54095 10.4396 8.54095C10.1717 8.54095 9.74312 8.64 9.37575 9.03619C9.00837 9.43238 7.98278 10.3924 7.98278 12.3429C7.98278 14.2933 9.40636 16.1752 9.60536 16.4419C9.80435 16.7086 12.4143 20.7086 16.4095 22.4229C17.3585 22.8343 18.1009 23.0781 18.6826 23.261C19.6393 23.5657 20.5042 23.52 21.193 23.421C21.9584 23.3067 23.5503 22.461 23.8795 21.539C24.2086 20.6171 24.2086 19.8171 24.1091 19.6571C23.9943 19.4743 23.734 19.3752 23.336 19.1771Z" fill="url(#paint0_linear)"/>
</g>
<defs>
<linearGradient id="paint0_linear" x1="-1.22189e-06" y1="16.0001" x2="32.0019" y2="16.0001" gradientUnits="userSpaceOnUse">
<stop stop-color="#59F775"/>
<stop offset="0.760417" stop-color="#28D146"/>
</linearGradient>
<clipPath id="clip0">
<rect width="32" height="32" fill="white"/>
</clipPath>
</defs>
</svg>
