<svg width="64" height="64" viewBox="0 0 64 64" fill="none" xmlns="http://www.w3.org/2000/svg">
<path d="M52.5522 15.2203C53.5936 14.1789 53.5937 12.4905 52.5523 11.4491C51.5109 10.4076 49.8225 10.4076 48.781 11.449L32 28.2295L15.2189 11.449C14.1775 10.4076 12.489 10.4076 11.4476 11.4491C10.4063 12.4905 10.4063 14.1789 11.4477 15.2203L28.2287 32.0007L11.4477 48.781C10.4063 49.8224 10.4063 51.5108 11.4476 52.5522C12.489 53.5937 14.1775 53.5937 15.2189 52.5523L32 35.7718L48.781 52.5523C49.8225 53.5937 51.5109 53.5937 52.5523 52.5522C53.5937 51.5108 53.5936 49.8224 52.5522 48.781L35.7713 32.0007L52.5522 15.2203Z" fill="#C4C4C4"/>
</svg>
